<?xml version="1.0" standalone="no"?><!DOCTYPE svg PUBLIC "-//W3C//DTD SVG 1.1//EN" "http://www.w3.org/Graphics/SVG/1.1/DTD/svg11.dtd"><svg t="1582955211757" class="icon" viewBox="0 0 1024 1024" version="1.1" xmlns="http://www.w3.org/2000/svg" p-id="10535" data-spm-anchor-id="a313x.7781069.0.i14" xmlns:xlink="http://www.w3.org/1999/xlink" width="16" height="16"><defs><style type="text/css"></style></defs><path d="M209.018182 335.989657l650.468848 0 0-56.776404c0-31.940525-25.938747-57.826263-57.796525-57.826263L454.805333 221.38699l0-52.398545c0-31.886222-25.885737-57.796525-57.796525-57.796525L107.865859 111.191919C75.951192 111.191919 50.069333 137.102222 50.069333 168.988444L50.069333 856.371717l101.104485-462.535111C151.173818 361.894788 177.108687 335.989657 209.018182 335.989657L209.018182 335.989657 209.018182 335.989657" p-id="10536" fill="#ea9518"></path><path d="M209.018182 335.989657 209.018182 335.989657z" p-id="10537" fill="#ea9518"></path><path d="M872.831354 855.712323c0 31.970263-25.934869 57.795232-57.844364 57.795232L92.288646 913.507556l101.209212-476.968081c0-31.940525 25.775838-57.826263 57.685333-57.826263l665.007838 0c31.91596 0 57.746101 25.885737 57.746101 57.826263L872.831354 855.712323 872.831354 855.712323 872.831354 855.712323M706.477899 633.726707l-99.066828 0L607.411071 485.127758 458.812121 485.127758l0 148.598949-99.065535 0 173.36501 173.363717L706.477899 633.726707 706.477899 633.726707z" p-id="10538" fill="#ea9518"></path></svg>