<?xml version="1.0" standalone="no"?><!DOCTYPE svg PUBLIC "-//W3C//DTD SVG 1.1//EN" "http://www.w3.org/Graphics/SVG/1.1/DTD/svg11.dtd"><svg t="1582955482687" class="icon" viewBox="0 0 1024 1024" version="1.1" xmlns="http://www.w3.org/2000/svg" p-id="11855" xmlns:xlink="http://www.w3.org/1999/xlink" width="16" height="16"><defs><style type="text/css"></style></defs><path d="M927.744 82.016H288.256C252.832 82.016 224 117.44 224 161.056v140.96H96.256C60.832 302.016 32 337.44 32 381.056v481.952c0 43.648 28.832 79.008 64.256 79.008h639.488c35.552 0 64.256-35.328 64.256-79.008v-140.992h127.744c35.552 0 64.256-35.328 64.256-79.008V161.056c0-43.616-28.672-79.04-64.256-79.04z m-15.36 56.608l-154.592 168.448a53.344 53.344 0 0 0-22.016-5.056h-282.176L303.616 138.624h608.768zM271.776 189.952l103.936 112.032H271.776V189.952zM224 358.624H720.384l-138.496 150.912-116.544 127.008c-12.32 13.504-22.72 22.88-31.488 28.864h-35.712c-8.768-6.016-19.168-15.36-31.488-28.864l-17.472-19.072-35.424-38.592-41.984-45.728L224 481.056l-112.384-122.464H224zM79.776 845.408V409.952L224 565.408l47.776 51.488 3.904 4.192 3.296 3.552-48.064 53.28-151.136 167.488z m33.504 40l153.984-168.096 45.952-50.112 32.736 35.328c7.712 8.288 16.352 14.496 25.472 19.456 13.408 7.328 28.16 11.456 44.576 11.456 16.48 0 31.232-4.16 44.64-11.456 9.152-4.96 17.76-11.2 25.504-19.456l32.736-35.328 50.208 54.816 149.696 163.392H113.28z m638.944-40l-111.328-123.392-51.072-56.608-36.736-40.736 161.184-173.792 36.736-39.616 1.216-1.312v435.456zM800 665.408v-120.928l110.784 120.928H800z m144.224-40L800 465.568v-84.512a95.36 95.36 0 0 0-4.928-30.304l149.152-160.8v435.456z" fill="#707070" p-id="11856"></path></svg>